<svg width="20" height="20" viewBox="0 0 20 20" fill="none" xmlns="http://www.w3.org/2000/svg">
<path d="M18.1713 8.36794H17.5001V8.33335H10.0001V11.6667H14.7097C14.0226 13.6071 12.1763 15 10.0001 15C7.23883 15 5.00008 12.7613 5.00008 10C5.00008 7.23877 7.23883 5.00002 10.0001 5.00002C11.2747 5.00002 12.4342 5.48085 13.3172 6.26627L15.6742 3.90919C14.1859 2.5221 12.1951 1.66669 10.0001 1.66669C5.398 1.66669 1.66675 5.39794 1.66675 10C1.66675 14.6021 5.398 18.3334 10.0001 18.3334C14.6022 18.3334 18.3334 14.6021 18.3334 10C18.3334 9.44127 18.2759 8.89585 18.1713 8.36794Z" fill="#FFC107"/>
<path d="M2.62744 6.12127L5.36536 8.12919C6.10619 6.29502 7.90036 5.00002 9.99994 5.00002C11.2745 5.00002 12.4341 5.48085 13.317 6.26627L15.6741 3.90919C14.1858 2.5221 12.1949 1.66669 9.99994 1.66669C6.79911 1.66669 4.02327 3.47377 2.62744 6.12127Z" fill="#FF3D00"/>
<path d="M10 18.3333C12.1525 18.3333 14.1084 17.5096 15.5871 16.17L13.008 13.9875C12.1432 14.6451 11.0865 15.0008 10 15C7.83255 15 5.99213 13.6179 5.2988 11.6891L2.5813 13.7829C3.96047 16.4816 6.7613 18.3333 10 18.3333Z" fill="#4CAF50"/>
<path d="M18.1713 8.3679H17.5V8.33331H10V11.6666H14.7096C14.3809 12.5902 13.7889 13.3971 13.0067 13.9879L13.0079 13.9871L15.5871 16.1696C15.4046 16.3354 18.3333 14.1666 18.3333 9.99998C18.3333 9.44123 18.2758 8.89581 18.1713 8.3679Z" fill="#1976D2"/>
</svg>
